<svg version="1.1" id="Layer_1" xmlns="http://www.w3.org/2000/svg" xmlns:xlink="http://www.w3.org/1999/xlink" x="0px" y="0px"
	 width="100%" viewBox="0 0 408 612" enable-background="new 0 0 408 612" xml:space="preserve">
<path fill="#47704C" opacity="1.000000" stroke="none" 
	d="
M240.000000,613.000000 
	C160.019485,613.000000 80.538963,613.000000 1.029220,613.000000 
	C1.029220,409.069458 1.029220,205.138931 1.029220,1.104201 
	C136.897141,1.104201 272.794373,1.104201 408.845825,1.104201 
	C408.845825,204.999908 408.845825,408.999939 408.845825,613.000000 
	C352.805634,613.000000 296.652832,613.000000 240.000000,613.000000 
M79.027542,365.482758 
	C78.539909,368.556396 77.999428,371.622803 77.578812,374.705566 
	C77.115204,378.103577 76.214363,381.559265 76.475883,384.914032 
	C76.995186,391.575592 77.794937,398.266968 79.177376,404.798157 
	C81.609657,416.289154 85.884964,427.069580 94.590645,435.379242 
	C95.960846,436.687103 98.874123,436.378387 101.073921,436.817139 
	C100.758865,434.810486 101.146667,432.190887 100.016563,430.894989 
	C91.653648,421.305023 87.205498,409.936371 85.028687,397.719940 
	C81.585472,378.396484 87.139000,360.468719 95.186737,343.269562 
	C100.571938,331.760620 109.019470,322.473907 119.354301,315.107025 
	C123.460426,312.180084 128.180588,310.124939 132.549957,307.551880 
	C134.321564,306.508606 136.690002,305.437622 137.296082,303.820526 
	C137.703690,302.733002 135.824280,300.266907 134.406509,299.099548 
	C123.575569,290.181549 120.053230,277.838867 119.031502,264.787598 
	C118.259865,254.930862 119.081863,244.951294 119.135918,235.026077 
	C119.145233,233.316010 118.861145,231.604355 118.635368,229.004288 
	C113.775154,232.056870 111.895935,236.021179 111.543999,240.158081 
	C110.904755,247.672226 111.258194,255.265579 110.920464,262.813507 
	C110.805855,265.374817 110.581985,268.446259 109.154457,270.339264 
	C104.487770,276.527557 99.454369,282.478241 94.147842,288.131561 
	C90.574608,291.938324 85.744446,291.628082 81.088486,290.162048 
	C77.120949,288.912750 75.458290,285.896027 76.352859,282.017822 
	C77.690720,276.217804 78.806099,270.187042 81.358543,264.902893 
	C83.431290,260.611816 83.840775,256.519531 83.777641,252.085709 
	C83.723106,248.255493 83.625305,244.424805 83.645241,240.594849 
	C83.679031,234.101669 82.854393,227.419205 84.121391,221.167038 
	C85.506142,214.333786 85.968285,206.105591 96.030235,204.612061 
	C100.117546,204.005356 104.219048,201.667923 107.709106,199.246140 
	C114.859886,194.284134 122.261261,191.810883 131.032745,193.598404 
	C133.396729,194.080154 137.058319,193.949417 138.460449,192.495392 
	C150.868637,179.628128 166.426163,174.738205 183.633087,174.020401 
	C192.643539,173.644516 201.434814,174.319824 210.476974,176.542175 
	C221.324585,179.208282 230.549713,183.343628 238.274963,191.289322 
	C239.639481,192.692795 242.012466,193.115799 243.919739,193.991562 
	C243.730209,193.380814 243.540695,192.770050 243.351166,192.159286 
	C246.327454,188.629608 248.799088,184.438156 252.382904,181.705124 
	C260.354523,175.625992 270.227600,175.347260 279.747681,174.343216 
	C280.520142,174.261765 281.399139,174.628876 282.147461,174.967117 
	C289.849548,178.448456 296.862488,182.934418 302.613007,189.219635 
	C311.785126,199.244598 316.876587,211.134232 317.718964,224.599472 
	C318.903748,243.537827 318.534210,262.326355 311.143036,280.358063 
	C307.709991,288.733459 302.725800,295.889709 295.401611,300.853729 
	C288.644348,305.433594 278.296082,304.792725 274.573669,295.518799 
	C271.825592,288.672394 267.380188,282.518982 263.869110,275.961487 
	C262.391418,273.201660 260.073242,270.051697 260.376343,267.328308 
	C261.505951,257.178558 263.264648,247.152573 261.046051,236.916855 
	C259.723419,230.814713 259.172943,224.527939 257.558105,218.516846 
	C257.069397,216.697662 254.180573,215.523239 252.391113,214.053497 
	C251.998459,216.072418 251.105225,218.139984 251.295898,220.102234 
	C252.381287,231.271317 254.670410,242.412109 254.707977,253.568695 
	C254.743484,264.122833 251.137772,274.228455 244.880096,283.052490 
	C241.249084,288.172546 237.499268,293.208618 233.783493,298.268250 
	C232.077881,300.590729 231.970993,302.482422 235.021118,303.732056 
	C241.737671,306.483856 248.617767,308.913116 255.096466,312.144867 
	C260.333710,314.757324 265.081482,318.351135 270.985870,322.107330 
	C267.587860,323.324677 265.339539,324.254425 263.019379,324.941498 
	C245.929520,330.002625 228.587906,334.340881 211.798706,340.250885 
	C197.692703,345.216400 183.957031,351.459595 170.568222,358.158142 
	C161.556595,362.666718 153.360947,368.844391 144.962433,374.515533 
	C142.641876,376.082458 140.238068,379.059601 142.930267,381.449158 
	C144.254837,382.624817 148.802490,382.106873 150.397232,380.682373 
	C155.467087,376.153625 160.284653,371.686981 166.785080,368.972382 
	C173.142242,366.317657 178.848404,362.145569 185.086029,359.151398 
	C191.351273,356.143829 197.909882,353.743805 204.358810,351.123993 
	C208.100754,349.603912 211.824173,348.005676 215.656143,346.747864 
	C220.603409,345.123993 225.702682,343.961121 230.642868,342.318207 
	C237.945526,339.889648 245.054886,336.813385 252.454285,334.762268 
	C258.994476,332.949341 266.071075,332.890442 272.436951,330.687592 
	C277.446625,328.954041 280.136108,331.170074 282.470856,334.184631 
	C289.848206,343.710144 295.759491,354.164185 297.872742,366.141815 
	C300.336243,380.104645 300.671631,394.266693 295.044281,407.583618 
	C291.110779,416.892151 285.771484,425.606659 280.801636,435.079041 
	C282.316528,437.632111 285.897278,438.405945 287.761139,435.568451 
	C291.740662,429.510193 296.098572,423.583557 299.149536,417.063904 
	C302.446320,410.018860 306.040710,402.497070 306.686768,394.942169 
	C308.687012,371.553528 303.955505,349.566467 289.044525,330.574707 
	C286.915985,327.863586 287.207275,325.632629 291.065125,324.825806 
	C294.437592,324.120514 298.032715,323.913025 301.128540,322.564880 
	C308.532410,319.340668 315.711243,315.596558 322.960480,312.020813 
	C333.314117,306.913879 343.596252,301.658051 354.019623,296.698334 
	C358.014709,294.797363 362.330994,293.579193 366.470459,291.971436 
	C370.402924,290.444122 374.450623,289.094116 378.114410,287.064514 
	C379.261169,286.429260 379.326141,283.841156 379.886292,282.146942 
	C378.231537,281.781189 376.376312,280.741577 374.956085,281.164154 
	C368.107483,283.201660 361.376068,285.633057 353.938599,288.149567 
	C354.227173,286.432953 354.627594,285.362610 354.523926,284.343567 
	C354.387207,282.999695 354.232849,281.025299 353.392883,280.551849 
	C352.431427,280.009918 350.460083,280.433441 349.382202,281.135559 
	C348.060791,281.996307 347.254883,283.620514 346.148285,284.844299 
	C342.743286,288.609985 339.738098,292.901337 335.792755,295.984009 
	C323.164673,305.850922 308.319916,311.532990 293.388885,316.754425 
	C284.732483,319.781647 275.949432,320.764954 269.313538,312.017303 
	C268.647827,311.139740 267.523376,310.546631 266.513855,310.003632 
	C259.469818,306.214905 252.399948,302.474243 245.322159,298.709564 
	C247.065308,295.819855 248.882141,292.748779 250.758331,289.714417 
	C252.633667,286.681458 254.568405,283.685181 256.916565,279.979279 
	C258.493835,282.187439 259.871155,283.794922 260.891418,285.603760 
	C264.028229,291.164917 266.745697,296.981842 270.151367,302.367279 
	C274.651855,309.483917 286.064056,313.509430 292.267181,310.587128 
	C308.575989,302.904053 318.498627,289.602875 322.636505,272.647095 
	C325.183044,262.212189 325.482971,251.122925 325.838470,240.296158 
	C326.080597,232.922363 324.713470,225.490555 323.996246,218.091446 
	C322.348846,201.096588 313.592163,187.785919 300.906036,177.352463 
	C289.877380,168.282166 276.911163,164.916901 262.449554,168.837540 
	C254.883926,170.888626 247.949203,173.782379 243.033524,179.892487 
	C240.640015,182.867615 239.681152,181.921616 237.304871,180.143158 
	C233.559799,177.340302 229.560043,174.392868 225.192093,173.008743 
	C216.283081,170.185669 207.136719,167.912079 197.933792,166.285126 
	C191.638824,165.172272 185.034042,164.921265 178.658813,165.428802 
	C173.355118,165.851044 168.140930,167.794861 162.967438,169.334641 
	C158.553207,170.648483 153.914932,171.751755 149.971756,173.995560 
	C141.232269,178.968643 133.909042,187.144943 122.361214,185.128006 
	C121.936920,185.053894 121.425652,185.408096 120.969315,185.597397 
	C113.405724,188.735214 106.085068,192.833267 98.230301,194.813065 
	C83.869644,198.432648 78.340393,209.161377 76.286766,221.647751 
	C74.799828,230.688568 76.409805,240.237518 76.621849,249.560257 
	C76.655006,251.018250 76.906937,252.563446 76.531952,253.923340 
	C74.357338,261.809631 71.909302,269.621124 69.773415,277.517334 
	C66.485825,289.671387 74.050827,298.474915 85.973816,298.961456 
	C93.948608,299.286865 99.733421,294.676666 104.861206,289.395782 
	C107.766708,286.403564 109.923531,282.684357 112.725479,278.873810 
	C116.925911,286.986633 120.864494,294.593689 124.991608,302.564880 
	C108.828850,311.347717 96.308083,323.853271 88.354080,340.420929 
	C84.615761,348.207642 82.130402,356.595886 79.027542,365.482758 
M181.895935,244.507965 
	C182.155945,231.590683 168.594345,228.423325 161.138626,232.192261 
	C155.830765,234.875458 153.874207,239.553864 153.908585,245.573257 
	C153.953934,253.518250 159.854919,256.462463 165.469864,258.140289 
	C168.606064,259.077454 173.331863,256.621460 176.620773,254.550232 
	C179.591293,252.679504 182.599304,249.817184 181.895935,244.507965 
M206.956329,230.341476 
	C210.243774,234.659485 213.458969,235.537842 218.165039,233.403595 
	C223.898880,230.803223 226.575806,224.613907 224.078629,219.730804 
	C220.714981,213.153290 215.725220,211.505997 209.534637,214.929367 
	C204.368073,217.786453 203.083420,224.170258 206.956329,230.341476 
M147.119934,223.504562 
	C149.206543,216.175903 144.331665,209.059601 137.709793,209.767700 
	C133.358353,210.233017 129.410294,214.488358 129.005096,219.149902 
	C128.564560,224.217834 130.988342,227.910217 135.672150,229.306519 
	C140.429642,230.724792 144.406601,228.940781 147.119934,223.504562 
z"/>
<path fill="#030303" opacity="1.000000" stroke="none" 
	d="
M79.052391,365.097137 
	C82.130402,356.595886 84.615761,348.207642 88.354080,340.420929 
	C96.308083,323.853271 108.828850,311.347717 124.991608,302.564880 
	C120.864494,294.593689 116.925911,286.986633 112.725479,278.873810 
	C109.923531,282.684357 107.766708,286.403564 104.861206,289.395782 
	C99.733421,294.676666 93.948608,299.286865 85.973816,298.961456 
	C74.050827,298.474915 66.485825,289.671387 69.773415,277.517334 
	C71.909302,269.621124 74.357338,261.809631 76.531952,253.923340 
	C76.906937,252.563446 76.655006,251.018250 76.621849,249.560257 
	C76.409805,240.237518 74.799828,230.688568 76.286766,221.647751 
	C78.340393,209.161377 83.869644,198.432648 98.230301,194.813065 
	C106.085068,192.833267 113.405724,188.735214 120.969315,185.597397 
	C121.425652,185.408096 121.936920,185.053894 122.361214,185.128006 
	C133.909042,187.144943 141.232269,178.968643 149.971756,173.995560 
	C153.914932,171.751755 158.553207,170.648483 162.967438,169.334641 
	C168.140930,167.794861 173.355118,165.851044 178.658813,165.428802 
	C185.034042,164.921265 191.638824,165.172272 197.933792,166.285126 
	C207.136719,167.912079 216.283081,170.185669 225.192093,173.008743 
	C229.560043,174.392868 233.559799,177.340302 237.304871,180.143158 
	C239.681152,181.921616 240.640015,182.867615 243.033524,179.892487 
	C247.949203,173.782379 254.883926,170.888626 262.449554,168.837540 
	C276.911163,164.916901 289.877380,168.282166 300.906036,177.352463 
	C313.592163,187.785919 322.348846,201.096588 323.996246,218.091446 
	C324.713470,225.490555 326.080597,232.922363 325.838470,240.296158 
	C325.482971,251.122925 325.183044,262.212189 322.636505,272.647095 
	C318.498627,289.602875 308.575989,302.904053 292.267181,310.587128 
	C286.064056,313.509430 274.651855,309.483917 270.151367,302.367279 
	C266.745697,296.981842 264.028229,291.164917 260.891418,285.603760 
	C259.871155,283.794922 258.493835,282.187439 256.916565,279.979279 
	C254.568405,283.685181 252.633667,286.681458 250.758331,289.714417 
	C248.882141,292.748779 247.065308,295.819855 245.322159,298.709564 
	C252.399948,302.474243 259.469818,306.214905 266.513855,310.003632 
	C267.523376,310.546631 268.647827,311.139740 269.313538,312.017303 
	C275.949432,320.764954 284.732483,319.781647 293.388885,316.754425 
	C308.319916,311.532990 323.164673,305.850922 335.792755,295.984009 
	C339.738098,292.901337 342.743286,288.609985 346.148285,284.844299 
	C347.254883,283.620514 348.060791,281.996307 349.382202,281.135559 
	C350.460083,280.433441 352.431427,280.009918 353.392883,280.551849 
	C354.232849,281.025299 354.387207,282.999695 354.523926,284.343567 
	C354.627594,285.362610 354.227173,286.432953 353.938599,288.149567 
	C361.376068,285.633057 368.107483,283.201660 374.956085,281.164154 
	C376.376312,280.741577 378.231537,281.781189 379.886292,282.146942 
	C379.326141,283.841156 379.261169,286.429260 378.114410,287.064514 
	C374.450623,289.094116 370.402924,290.444122 366.470459,291.971436 
	C362.330994,293.579193 358.014709,294.797363 354.019623,296.698334 
	C343.596252,301.658051 333.314117,306.913879 322.960480,312.020813 
	C315.711243,315.596558 308.532410,319.340668 301.128540,322.564880 
	C298.032715,323.913025 294.437592,324.120514 291.065125,324.825806 
	C287.207275,325.632629 286.915985,327.863586 289.044525,330.574707 
	C303.955505,349.566467 308.687012,371.553528 306.686768,394.942169 
	C306.040710,402.497070 302.446320,410.018860 299.149536,417.063904 
	C296.098572,423.583557 291.740662,429.510193 287.761139,435.568451 
	C285.897278,438.405945 282.316528,437.632111 280.801636,435.079041 
	C285.771484,425.606659 291.110779,416.892151 295.044281,407.583618 
	C300.671631,394.266693 300.336243,380.104645 297.872742,366.141815 
	C295.759491,354.164185 289.848206,343.710144 282.470856,334.184631 
	C280.136108,331.170074 277.446625,328.954041 272.436951,330.687592 
	C266.071075,332.890442 258.994476,332.949341 252.454285,334.762268 
	C245.054886,336.813385 237.945526,339.889648 230.642868,342.318207 
	C225.702682,343.961121 220.603409,345.123993 215.656143,346.747864 
	C211.824173,348.005676 208.100754,349.603912 204.358810,351.123993 
	C197.909882,353.743805 191.351273,356.143829 185.086029,359.151398 
	C178.848404,362.145569 173.142242,366.317657 166.785080,368.972382 
	C160.284653,371.686981 155.467087,376.153625 150.397232,380.682373 
	C148.802490,382.106873 144.254837,382.624817 142.930267,381.449158 
	C140.238068,379.059601 142.641876,376.082458 144.962433,374.515533 
	C153.360947,368.844391 161.556595,362.666718 170.568222,358.158142 
	C183.957031,351.459595 197.692703,345.216400 211.798706,340.250885 
	C228.587906,334.340881 245.929520,330.002625 263.019379,324.941498 
	C265.339539,324.254425 267.587860,323.324677 270.985870,322.107330 
	C265.081482,318.351135 260.333710,314.757324 255.096466,312.144867 
	C248.617767,308.913116 241.737671,306.483856 235.021118,303.732056 
	C231.970993,302.482422 232.077881,300.590729 233.783493,298.268250 
	C237.499268,293.208618 241.249084,288.172546 244.880096,283.052490 
	C251.137772,274.228455 254.743484,264.122833 254.707977,253.568695 
	C254.670410,242.412109 252.381287,231.271317 251.295898,220.102234 
	C251.105225,218.139984 251.998459,216.072418 252.391113,214.053497 
	C254.180573,215.523239 257.069397,216.697662 257.558105,218.516846 
	C259.172943,224.527939 259.723419,230.814713 261.046051,236.916855 
	C263.264648,247.152573 261.505951,257.178558 260.376343,267.328308 
	C260.073242,270.051697 262.391418,273.201660 263.869110,275.961487 
	C267.380188,282.518982 271.825592,288.672394 274.573669,295.518799 
	C278.296082,304.792725 288.644348,305.433594 295.401611,300.853729 
	C302.725800,295.889709 307.709991,288.733459 311.143036,280.358063 
	C318.534210,262.326355 318.903748,243.537827 317.718964,224.599472 
	C316.876587,211.134232 311.785126,199.244598 302.613007,189.219635 
	C296.862488,182.934418 289.849548,178.448456 282.147461,174.967117 
	C281.399139,174.628876 280.520142,174.261765 279.747681,174.343216 
	C270.227600,175.347260 260.354523,175.625992 252.382904,181.705124 
	C248.799088,184.438156 246.327454,188.629608 243.351166,192.159286 
	C243.540695,192.770050 243.730209,193.380814 243.919739,193.991562 
	C242.012466,193.115799 239.639481,192.692795 238.274963,191.289322 
	C230.549713,183.343628 221.324585,179.208282 210.476974,176.542175 
	C201.434814,174.319824 192.643539,173.644516 183.633087,174.020401 
	C166.426163,174.738205 150.868637,179.628128 138.460449,192.495392 
	C137.058319,193.949417 133.396729,194.080154 131.032745,193.598404 
	C122.261261,191.810883 114.859886,194.284134 107.709106,199.246140 
	C104.219048,201.667923 100.117546,204.005356 96.030235,204.612061 
	C85.968285,206.105591 85.506142,214.333786 84.121391,221.167038 
	C82.854393,227.419205 83.679031,234.101669 83.645241,240.594849 
	C83.625305,244.424805 83.723106,248.255493 83.777641,252.085709 
	C83.840775,256.519531 83.431290,260.611816 81.358543,264.902893 
	C78.806099,270.187042 77.690720,276.217804 76.352859,282.017822 
	C75.458290,285.896027 77.120949,288.912750 81.088486,290.162048 
	C85.744446,291.628082 90.574608,291.938324 94.147842,288.131561 
	C99.454369,282.478241 104.487770,276.527557 109.154457,270.339264 
	C110.581985,268.446259 110.805855,265.374817 110.920464,262.813507 
	C111.258194,255.265579 110.904755,247.672226 111.543999,240.158081 
	C111.895935,236.021179 113.775154,232.056870 118.635368,229.004288 
	C118.861145,231.604355 119.145233,233.316010 119.135918,235.026077 
	C119.081863,244.951294 118.259865,254.930862 119.031502,264.787598 
	C120.053230,277.838867 123.575569,290.181549 134.406509,299.099548 
	C135.824280,300.266907 137.703690,302.733002 137.296082,303.820526 
	C136.690002,305.437622 134.321564,306.508606 132.549957,307.551880 
	C128.180588,310.124939 123.460426,312.180084 119.354301,315.107025 
	C109.019470,322.473907 100.571938,331.760620 95.186737,343.269562 
	C87.139000,360.468719 81.585472,378.396484 85.028687,397.719940 
	C87.205498,409.936371 91.653648,421.305023 100.016563,430.894989 
	C101.146667,432.190887 100.758865,434.810486 101.073921,436.817139 
	C98.874123,436.378387 95.960846,436.687103 94.590645,435.379242 
	C85.884964,427.069580 81.609657,416.289154 79.177376,404.798157 
	C77.794937,398.266968 76.995186,391.575592 76.475883,384.914032 
	C76.214363,381.559265 77.115204,378.103577 77.578812,374.705566 
	C77.999428,371.622803 78.539909,368.556396 79.052391,365.097137 
z"/>
<path fill="#020202" opacity="1.000000" stroke="none" 
	d="
M181.916733,244.936096 
	C182.599304,249.817184 179.591293,252.679504 176.620773,254.550232 
	C173.331863,256.621460 168.606064,259.077454 165.469864,258.140289 
	C159.854919,256.462463 153.953934,253.518250 153.908585,245.573257 
	C153.874207,239.553864 155.830765,234.875458 161.138626,232.192261 
	C168.594345,228.423325 182.155945,231.590683 181.916733,244.936096 
z"/>
<path fill="#030303" opacity="1.000000" stroke="none" 
	d="
M206.756012,230.036987 
	C203.083420,224.170258 204.368073,217.786453 209.534637,214.929367 
	C215.725220,211.505997 220.714981,213.153290 224.078629,219.730804 
	C226.575806,224.613907 223.898880,230.803223 218.165039,233.403595 
	C213.458969,235.537842 210.243774,234.659485 206.756012,230.036987 
z"/>
<path fill="#030303" opacity="1.000000" stroke="none" 
	d="
M147.018646,223.883301 
	C144.406601,228.940781 140.429642,230.724792 135.672150,229.306519 
	C130.988342,227.910217 128.564560,224.217834 129.005096,219.149902 
	C129.410294,214.488358 133.358353,210.233017 137.709793,209.767700 
	C144.331665,209.059601 149.206543,216.175903 147.018646,223.883301 
z"/>
</svg>